<?xml version="1.0" encoding="UTF-8"?>
<svg width="788px" height="788px" viewBox="0 0 788 788" version="1.1" xmlns="http://www.w3.org/2000/svg" xmlns:xlink="http://www.w3.org/1999/xlink">
    <title>Artboard</title>
    <g id="Artboard" stroke="none" stroke-width="1" fill="none" fill-rule="evenodd">
        <polygon id="Path" fill="#cccccc" fill-rule="nonzero" points="377.956923 361.230769 381.150769 336.184615 397.556923 335.384615 395.96 328.052308 381.003077 318.396923 384.489231 312.009231 368.735385 290.735385 368.009231 278.393846 342.236923 282.895385 340.276923 301.772308 325.830769 328.852308 311.892308 332.916923 301.292308 328.492308 287.424615 330.667692 281.907692 338.215385 256.209231 339.741538 240.163077 325.076923 233.049231 343.661538 237.113846 361.156923 254.32 377.418462 259.692308 405.369231 271.018462 402.827692 298.895385 410.233846 307.898462 404.061538 326.772308 408.926154 332.581538 420.76 354.289231 410.452308 363.289231 389.470769 358.643077 378.870769"></polygon>
        <polygon id="Path" fill="#cccccc" fill-rule="nonzero" points="304.775385 477.532308 301.655385 467.369231 286.190769 465.335385 269.566154 462.430769 266.735385 469.910769 240.670769 469.255385 228.692308 460.326154 208.584615 459.092308 204.301538 459.018462 192.901538 456.843077 189.126154 467.513846 199.944615 474.772308 202.338462 481.526154 234.427692 486.243077 239.944615 483.341538 260.563077 485.809231 273.993846 490.163077 275.664615 490.526154 312.544615 489.366154 325.612308 494.375385 332.944615 481.018462 313.778462 481.307692"></polygon>
        <polygon id="Path" fill="#cccccc" fill-rule="nonzero" points="486.852308 512.596923 498.033846 514.338462 508.56 502.796923 506.092308 494.012308"></polygon>
        <polygon id="Path" fill="#cccccc" fill-rule="nonzero" points="427.612308 484.793846 423.110769 494.596923 454.036923 493.870769 470.735385 488.861538 473.421538 481.021538 462.169231 489.513846"></polygon>
        <polygon id="Path" fill="#cccccc" fill-rule="nonzero" points="499.556923 326.963077 493.243077 320.793846 481.624615 330.375385 454.036923 328.633846 432.187692 324.421538 427.030769 334.150769 418.609231 335.310769 411.713846 361.809231 408.809231 380.76 399.806154 394.553846 403.218462 407.473846 412.584615 405.732308 415.415385 419.307692 411.569231 436.732308 419.335385 442.030769 427.830769 438.618462 429.209231 423.953846 427.249231 400.578462 438.72 394.987692 435.96 405.587692 447.141538 416.621538 465 418.655385 459.92 399.489231 445.544615 380.541538 459.049231 370.449231 466.018462 360.575385 444.018462 360.575385 437.341538 370.304615 420.28 358.470769 424.055385 339.378462 440.098462 338.796923 467.615385 336.981538 475.818462 339.378462 490.338462 337.126154"></polygon>
        <polygon id="Path" fill="#cccccc" fill-rule="nonzero" points="564.098462 313.101538 541.883077 320.215385 554.658462 352.667692 557.104615 350.710769 552.12 332.412308 564.243077 321.667692"></polygon>
        <polygon id="Path" fill="#cccccc" fill-rule="nonzero" points="534.550769 407.04 540.141538 395.64 521.409231 397.166154 518.652308 405.107692"></polygon>
        <polygon id="Path" fill="#cccccc" fill-rule="nonzero" points="561.578462 393.446154 560.707692 401.941538 582.876923 400.323077 605.043077 404.861538 600.033846 392.156923 582.873846 389.655385"></polygon>
        <polygon id="Path" fill="#cccccc" fill-rule="nonzero" points="372.292308 490.455385 375.486154 500.181538 403.944615 494.086154 407.430769 485.809231 388.338462 487.261538"></polygon>
        <polygon id="Path" fill="#cccccc" fill-rule="nonzero" points="787.046154 376.987692 766.212308 373.356923 727.443077 358.473846 702.615385 372.704615 686.498462 393.683077 677.787692 393.32 671.907692 384.753846 663.123077 376.987692 663.993846 358.692308 658.04 347.873846 647.658462 348.381538 635.316923 342.575385 609.978462 351.867692 605.550769 362.901538 622.030769 364.935385 637.64 385.409231 638.003077 400.726154 647.658462 406.969231 653.030769 398.258462 676.190769 409.873846 695.935385 414.156923 727.516923 426.427692 747.916923 455.249231 752.707692 469.113846 748.886154 477.507692 747.48 465.630769 733.323077 469.84 726.064615 483.852308 740.655385 483.923077 748.6 478.141538 747.916923 479.64 767.953846 479.495385 786.756923 498.516923 787.846154 446.824615"></polygon>
        <polygon id="Path" fill="#cccccc" fill-rule="nonzero" points="190.578462 413.501538 182.301538 399.778462 169.889231 398.618462 160.304615 378.289231 144.335385 374.443077 148.833846 357.744615 126.692308 349.978462 120.375385 340.030769 108.541538 335.24 102.083077 326.963077 89.0861538 321.88 79.1415385 311.716923 54.0953846 297.489231 39.72 278.030769 16.2707692 278.107692 0.153846154 273.966154 4.43692308 286.236923 22.1507692 302.861538 30.0646154 305.04 45.6738462 328.341538 51.8430769 329.649231 63.4584615 340.249231 71.2276923 361.52 81.6092308 365.803077 105.566154 405.658462 151.375385 443.483077 163.572308 454.809231 188.4 456.261538 187.458462 428.6"></polygon>
        <polygon id="Path" fill="#cccccc" fill-rule="nonzero" points="346.276923 496.836923 332.944615 487.861538 351.661538 485.809231 356.021538 492.476923"></polygon>
    </g>
</svg>