<?xml version="1.0" encoding="UTF-8"?>
<svg width="788px" height="788px" viewBox="0 0 788 788" version="1.1" xmlns="http://www.w3.org/2000/svg" xmlns:xlink="http://www.w3.org/1999/xlink">
    <title>Artboard</title>
    <g id="Artboard" stroke="none" stroke-width="1" fill="none" fill-rule="evenodd">
        <polygon id="Path" fill="#ffcc00" fill-rule="nonzero" points="377.956923 361.230769 381.150769 336.184615 397.556923 335.384615 395.96 328.052308 381.003077 318.396923 384.489231 312.009231 368.735385 290.735385 368.009231 278.393846 342.236923 282.895385 340.276923 301.772308 325.830769 328.852308 311.892308 332.916923 301.292308 328.492308 287.424615 330.667692 281.907692 338.215385 256.209231 339.741538 240.163077 325.076923 233.049231 343.661538 237.113846 361.156923 254.32 377.418462 259.692308 405.369231 271.018462 402.827692 298.895385 410.233846 307.898462 404.061538 326.772308 408.926154 332.581538 420.76 354.289231 410.452308 363.289231 389.470769 358.643077 378.870769"></polygon>
    </g>
</svg>