<?xml version="1.0" encoding="UTF-8"?>
<svg width="788px" height="788px" viewBox="0 0 788 788" version="1.1" xmlns="http://www.w3.org/2000/svg" xmlns:xlink="http://www.w3.org/1999/xlink">
    <title>Artboard</title>
    <g id="Artboard" stroke="none" stroke-width="1" fill="none" fill-rule="evenodd">
        <polygon id="Path" fill="#00ccff" fill-rule="nonzero" points="787.046154 376.987692 766.212308 373.356923 727.443077 358.473846 702.615385 372.704615 686.498462 393.683077 677.787692 393.32 671.907692 384.753846 663.123077 376.987692 663.993846 358.692308 658.04 347.873846 647.658462 348.381538 635.316923 342.575385 609.978462 351.867692 605.550769 362.901538 622.030769 364.935385 637.64 385.409231 638.003077 400.726154 647.658462 406.969231 653.030769 398.258462 676.190769 409.873846 695.935385 414.156923 727.516923 426.427692 747.916923 455.249231 752.707692 469.113846 748.886154 477.507692 747.48 465.630769 733.323077 469.84 726.064615 483.852308 740.655385 483.923077 748.6 478.141538 747.916923 479.64 767.953846 479.495385 786.756923 498.516923 787.846154 446.824615"></polygon>
    </g>
</svg>