<?xml version="1.0" encoding="UTF-8"?>
<svg width="788px" height="788px" viewBox="0 0 788 788" version="1.1" xmlns="http://www.w3.org/2000/svg" xmlns:xlink="http://www.w3.org/1999/xlink">
    <title>Artboard</title>
    <g id="Artboard" stroke="none" stroke-width="1" fill="none" fill-rule="evenodd">
        <polygon id="Path" fill="#00ffcc" fill-rule="nonzero" points="499.556923 326.963077 493.243077 320.793846 481.624615 330.375385 454.036923 328.633846 432.187692 324.421538 427.030769 334.150769 418.609231 335.310769 411.713846 361.809231 408.809231 380.76 399.806154 394.553846 403.218462 407.473846 412.584615 405.732308 415.415385 419.307692 411.569231 436.732308 419.335385 442.030769 427.830769 438.618462 429.209231 423.953846 427.249231 400.578462 438.72 394.987692 435.96 405.587692 447.141538 416.621538 465 418.655385 459.92 399.489231 445.544615 380.541538 459.049231 370.449231 466.018462 360.575385 444.018462 360.575385 437.341538 370.304615 420.28 358.470769 424.055385 339.378462 440.098462 338.796923 467.615385 336.981538 475.818462 339.378462 490.338462 337.126154"></polygon>
    </g>
</svg>