<?xml version="1.0" encoding="UTF-8"?>
<svg width="788px" height="788px" viewBox="0 0 788 788" version="1.1" xmlns="http://www.w3.org/2000/svg" xmlns:xlink="http://www.w3.org/1999/xlink">
    <title>Artboard</title>
    <g id="Artboard" stroke="none" stroke-width="1" fill="none" fill-rule="evenodd">
        <polygon id="Path" fill="#cc00ff" fill-rule="nonzero" points="190.578462 413.501538 182.301538 399.778462 169.889231 398.618462 160.304615 378.289231 144.335385 374.443077 148.833846 357.744615 126.692308 349.978462 120.375385 340.030769 108.541538 335.24 102.083077 326.963077 89.0861538 321.88 79.1415385 311.716923 54.0953846 297.489231 39.72 278.030769 16.2707692 278.107692 0.153846154 273.966154 4.43692308 286.236923 22.1507692 302.861538 30.0646154 305.04 45.6738462 328.341538 51.8430769 329.649231 63.4584615 340.249231 71.2276923 361.52 81.6092308 365.803077 105.566154 405.658462 151.375385 443.483077 163.572308 454.809231 188.4 456.261538 187.458462 428.6"></polygon>
    </g>
</svg>